<svg viewBox = "0 0 88 88" width="88" height="88" xmlns="http://www.w3.org/2000/svg"><g transform="matrix(1 0 0 1 44 44)"  ><g style=""   ><g transform="matrix(1 0 0 1 -8.86 0)"  ><path style="stroke: none; stroke-width: 1; stroke-dasharray: none; stroke-linecap: butt; stroke-dashoffset: 0; stroke-linejoin: miter; stroke-miterlimit: 4; fill: rgb(109,49,237); fill-rule: nonzero; opacity: 1;"  transform=" translate(-35.14, -44)" d="M 62.327 48.8759 C 55.6773 22.5077 21.5255 4 21.5255 4 C 21.5255 4 1.21123 37.114 8.62969 63.2516 C 8.62969 63.29 8.62969 63.3477 8.64891 63.3861 C 8.66813 63.4822 8.70657 63.5591 8.745 63.6552 C 8.8411 63.9819 8.91797 64.2894 9.01407 64.6161 L 9.0525 64.6161 C 13.5305 78.6843 28.2905 86.91 42.7046 83.047 C 57.1187 79.184 65.8057 64.6738 62.6346 50.2597 L 62.673 50.2597 C 62.5961 49.933 62.5192 49.6062 62.4231 49.2795 C 62.4039 49.1834 62.3847 49.0873 62.3655 49.0105 C 62.3655 48.972 62.327 48.9336 62.327 48.8759 Z" stroke-linecap="round" /></g><g transform="matrix(1 0 0 1 9.65 0)"  ><path style="stroke: none; stroke-width: 1; stroke-dasharray: none; stroke-linecap: butt; stroke-dashoffset: 0; stroke-linejoin: miter; stroke-miterlimit: 4; fill: rgb(21,171,255); fill-rule: nonzero; opacity: 1;"  transform=" translate(-53.65, -44)" d="M 80.1617 63.2516 C 87.5802 37.114 67.2659 4 67.2659 4 C 67.2659 4 33.1141 22.5077 26.4644 48.8759 C 26.4644 48.9144 26.4259 48.9528 26.4259 49.0105 C 26.4067 49.1065 26.3875 49.2026 26.3683 49.2795 C 26.2914 49.6062 26.1953 49.9137 26.1184 50.2405 L 26.1569 50.2405 C 22.9858 64.6738 31.6727 79.184 46.0868 83.047 C 60.5009 86.91 75.2801 78.6843 79.7389 64.6161 L 79.7774 64.6161 C 79.8734 64.3086 79.9503 63.9819 80.0464 63.6744 C 80.0656 63.5783 80.1041 63.5014 80.1425 63.4053 C 80.1425 63.3669 80.1425 63.3093 80.1617 63.2708 L 80.1617 63.2516 Z" stroke-linecap="round" /></g><g transform="matrix(1 0 0 1 0.4 7.78)"  ><path style="stroke: none; stroke-width: 1; stroke-dasharray: none; stroke-linecap: butt; stroke-dashoffset: 0; stroke-linejoin: miter; stroke-miterlimit: 4; fill: rgb(109,49,237); fill-opacity: 0.2; fill-rule: evenodd; opacity: 1;"  transform=" translate(-44.4, -51.78)" d="M 44.3957 21.0139 C 52.1672 28.4672 59.5851 38.0033 62.327 48.8759 C 62.327 48.9076 62.3387 48.9336 62.3492 48.9569 C 62.3577 48.9759 62.3655 48.9932 62.3655 49.0104 C 62.3847 49.0873 62.4039 49.1834 62.4231 49.2795 C 62.5192 49.6062 62.5961 49.9329 62.673 50.2596 L 62.673 50.2597 L 62.6346 50.2597 C 65.6796 64.1009 57.7905 78.0308 44.3957 82.5366 C 31.0009 78.0307 23.1118 64.1001 26.1569 50.2404 L 26.1184 50.2404 C 26.1569 50.0771 26.2001 49.9185 26.2433 49.76 C 26.2866 49.6014 26.3298 49.4429 26.3683 49.2795 C 26.3875 49.2026 26.4067 49.1065 26.4259 49.0104 C 26.4259 48.9787 26.4376 48.9528 26.448 48.9295 C 26.4566 48.9105 26.4644 48.8932 26.4644 48.8759 C 29.2063 38.0033 36.6242 28.4672 44.3957 21.0139 Z" stroke-linecap="round" /></g></g></g></svg>